<?xml version="1.0" encoding="UTF-8" standalone="no"?>
<!DOCTYPE svg PUBLIC "-//W3C//DTD SVG 1.1//EN" "http://www.w3.org/Graphics/SVG/1.1/DTD/svg11.dtd">
<svg width="100%" height="100%" viewBox="0 0 1944 997" version="1.1" xmlns="http://www.w3.org/2000/svg" xmlns:xlink="http://www.w3.org/1999/xlink" xml:space="preserve" xmlns:serif="http://www.serif.com/" style="fill-rule:evenodd;clip-rule:evenodd;stroke-linejoin:round;stroke-miterlimit:2;">
    <g transform="matrix(1,0,0,1,-435.569361,-1247.27727)">
        <g transform="matrix(1.095956,0,0,1,0,0)">
            <g id="button.jpg" transform="matrix(1.86378,0,0,2.04262,335.764963,856.574195)">
                <path d="M878.5,216.034C874.121,215.722 853.789,212.769 868.49,217.525C874.294,219.402 884.949,226.737 895.608,229.127C899.674,230.039 912.483,241.253 923.624,245.169C927.906,246.675 962.589,272.555 968.529,282.48C970.564,285.881 971.208,284.973 974.155,287.849C975.729,289.385 994.27,318.786 973.765,342.716C972.326,344.395 974.466,346.08 970.404,348.341C945.481,362.214 945.33,374.668 862.411,395.242C845.852,399.351 846.063,399.529 829.464,403.185C727.303,425.685 727.014,423.202 623.555,437.929C621.83,438.174 488.479,451.805 480.503,452.014C450.176,452.808 416.046,456.503 410.46,457.108C387.397,459.605 277.384,462.779 272.522,462.017C250.047,458.496 245.281,465.407 236.591,462.208C219.053,455.753 47.145,459.931 34.017,389.604C18.086,304.256 211.867,252.2 236.568,242.703C240.568,241.165 240.852,242.421 288.412,229.256C292.228,228.2 326.039,222.698 336.92,220.007C342.42,218.647 369.963,214.565 381.415,211.325C385.459,210.18 385.552,211.05 433.56,204.879C543.57,190.738 702.224,191.553 717.421,191.275C718.485,191.256 873.402,201.037 889.787,210.066C892.911,211.787 894.452,211.017 894.01,214.473C893.576,217.856 891.936,215.977 878.5,216.034ZM387.5,225.034C355.99,231.339 355.922,230.262 324.53,236.962C296.245,242.999 296.419,243.18 268.421,250.299C143.562,282.047 34.954,340.032 52.408,389.536C56.822,402.058 67.225,431.563 209.513,443.025C235.769,445.139 256.041,444.26 257.505,444.324C278.819,445.252 278.68,443.272 280.477,443.659C291.783,446.089 291.788,444.965 308.503,445.032C373.014,445.292 581.744,425.98 583.541,425.938C589.325,425.804 593.687,422.288 605.495,422.148C621.127,421.961 620.786,420.329 635.527,418.982C639.381,418.63 646.313,417.997 683.524,412.971C757.72,402.95 796.727,391.898 800.516,391.636C804.026,391.393 810.539,390.942 843.593,382.79C845.591,382.298 868.479,376.653 868.561,376.602C878.606,370.311 948.676,356.805 962.678,322.567C971.658,300.609 930.68,269.485 919.435,262.602C900.361,250.926 863.735,227.637 815.428,213.846C808.17,211.774 786.812,205.677 721.499,205.028C645.892,204.277 646.01,204.229 570.485,207.022C481.131,210.327 401.706,223.17 387.5,225.034Z" style="fill:rgb(21,22,104);"/>
                <path d="M387.5,225.034C401.706,223.17 481.131,210.327 570.485,207.022C646.01,204.229 645.892,204.277 721.499,205.028C786.812,205.677 808.17,211.774 815.428,213.846C863.735,227.637 900.361,250.926 919.435,262.602C930.68,269.485 971.658,300.609 962.678,322.567C948.676,356.805 878.606,370.311 868.561,376.602C868.479,376.653 845.591,382.298 843.593,382.79C810.539,390.942 804.026,391.393 800.516,391.636C796.727,391.898 757.72,402.95 683.524,412.971C646.313,417.997 639.381,418.63 635.527,418.982C620.786,420.329 621.127,421.961 605.495,422.148C593.687,422.288 589.325,425.804 583.541,425.938C581.744,425.98 373.014,445.292 308.503,445.032C291.788,444.965 291.783,446.089 280.477,443.659C278.68,443.272 278.819,445.252 257.505,444.324C256.041,444.26 235.769,445.139 209.513,443.025C67.225,431.563 56.822,402.058 52.408,389.536C34.954,340.032 143.562,282.047 268.421,250.299C296.419,243.18 296.245,242.999 324.53,236.962C355.922,230.262 355.99,231.339 387.5,225.034Z" style="fill:rgb(198,37,37);"/>
                <g transform="matrix(1,0,0,1,17.469142,-7.193176)">
                    <path d="M830.63,280.585C830.543,280.33 797.247,353.446 811.1,371.799C812.849,374.116 814.483,382.702 811.462,383.057C792.868,385.239 789.819,382.891 786.817,364.366C786.795,364.232 786.817,364.366 785.591,363.178C782.25,363.988 781.145,364.256 782.612,367.541C766.798,386.444 767.096,390.85 742.508,389.361C710.272,387.41 729.774,327.008 757.671,311.816C782.801,298.13 781.111,319.392 787.458,319.007C798.857,318.316 810.375,230.75 830.895,248.1C835.894,252.327 841.4,253.163 831.64,277.57C831.246,278.554 831.024,279.601 830.63,280.585ZM746.046,364.445C744.302,385.825 780.402,335.705 777.633,335.268C772.894,334.519 772.764,334.904 769.475,331.522C767.764,329.762 752.205,340.437 746.046,364.445Z" style="fill:rgb(21,22,104);"/>
                </g>
                <g transform="matrix(0.965021,-0.262174,0.262174,0.965021,-126.798775,125.174768)">
                    <path d="M218.966,354.5C220.223,346.505 218.413,342.651 230.584,326.56C233.128,323.197 256.882,291.793 279.118,305.986C292.692,314.65 285.64,326.041 270.343,320.96C259.563,317.38 245.252,336.506 240.873,345.68C228.943,370.67 260.023,359.757 292.418,313.439C318.538,276.093 316.983,220.805 338.705,240.277C355.881,255.673 328.888,274.147 312.137,340.42C305.194,367.893 311.182,371.634 303.44,374.333C295.728,377.021 296.211,377.777 295.519,377.797C277.588,378.309 286.351,357.476 285.656,357.354C285.363,357.302 220.522,407.845 218.966,354.5Z" style="fill:rgb(21,22,104);"/>
                </g>
                <g transform="matrix(0.990698,-0.136077,0.136077,0.990698,-94.209869,72.745553)">
                    <path d="M458.5,393.034C454.401,392.621 445.86,393.755 441.445,380.522C438.874,372.815 432.399,396.309 407.484,392.975C377.557,388.971 410.457,316.733 427.23,306.122C431.043,303.711 431.257,307.505 435.534,306.639C438.045,306.131 444.483,313.98 441.153,319.257C438.776,323.023 413.631,362.866 416.879,369.355C417.156,369.909 439.041,357.504 452.425,331.461C468.083,300.993 479.261,330.659 476.492,335.496C458.217,367.428 461.119,372.261 463.206,370.149C476.882,356.317 482.527,333.925 483.397,330.472C489.121,307.764 501.967,320.354 504.7,326.416C507.981,333.695 494.918,363.723 493.667,365.606C472.214,397.887 466.992,392.05 458.5,393.034Z" style="fill:rgb(21,22,104);"/>
                </g>
                <g transform="matrix(0.992155,-0.125018,0.125018,0.992155,-33.543551,86.299057)">
                    <path d="M708.5,390.034C707.36,389.898 699.675,388.982 695.832,383.28C694.026,380.599 694.721,377.003 691.091,380.012C676.836,391.826 657.082,389.732 647.868,378.223C639.301,367.523 650.155,341.396 651.38,338.445C653.916,332.341 681.575,286.213 708.848,317.049C710.853,319.315 717.033,311.31 724.661,326.427C728.821,334.672 705.013,360.028 717.257,376.688C728.788,392.379 713.247,389.39 708.5,390.034ZM664.363,368.5C680.935,369.732 689.757,342.6 690.017,333.489C690.483,317.194 662.335,347.785 664.363,368.5Z" style="fill:rgb(21,22,104);"/>
                </g>
                <g transform="matrix(0.976196,-0.216889,0.216889,0.976196,-112.264513,113.478946)">
                    <path d="M346.5,379.034C340.517,378.407 324.168,380.323 321.973,357.49C319.647,333.3 343.563,311.77 346.81,308.847C367.088,290.593 375.11,304.672 378.522,303.564C380.432,302.944 393.459,298.717 398.741,318.438C401.074,327.147 390.434,377.38 346.5,379.034ZM376.956,324.484C374.371,309.032 352.769,326.316 344.315,346.419C330.831,378.482 375.933,349.173 376.956,324.484Z" style="fill:rgb(21,22,104);"/>
                </g>
                <g transform="matrix(0.976196,-0.216889,0.216889,0.976196,184.710901,94.982208)">
                    <path d="M346.5,379.034C340.517,378.407 324.168,380.323 321.973,357.49C319.647,333.3 343.563,311.77 346.81,308.847C367.088,290.593 375.11,304.672 378.522,303.564C380.432,302.944 393.459,298.717 398.741,318.438C401.074,327.147 390.434,377.38 346.5,379.034ZM376.956,324.484C374.371,309.032 352.769,326.316 344.315,346.419C330.831,378.482 375.933,349.173 376.956,324.484Z" style="fill:rgb(21,22,104);"/>
                </g>
                <g transform="matrix(0.990701,-0.136055,0.136055,0.990701,-99.782362,80.376423)">
                    <path d="M572.278,386.498C569.461,383.301 569.401,387.085 569.197,387.388L568.907,388.867C568.761,389.385 568.615,389.904 568.468,390.423C565.802,389.645 543.11,398.944 553.486,365.495C558.577,349.083 564.862,338.889 559.492,342.481C530.983,361.546 524.873,389.276 520.496,389.323C513.212,389.401 503.563,394.43 501.462,380.503C501.392,380.036 526.182,314.836 533.681,311.778C534.302,311.524 533.485,313.855 541.45,314.927C546.095,315.553 540.979,329.696 549.39,323.332C575.537,303.546 580.793,316.213 583.182,318.787C590.097,326.237 584.852,340.631 584.205,342.408C582.945,345.866 584.953,346.833 581.871,348.9C581.116,349.406 574.508,371.594 573.718,373.547C572.494,376.569 572.049,378.937 572.278,386.498Z" style="fill:rgb(21,22,104);"/>
                </g>
                <g transform="matrix(0.9326,-0.360912,0.360912,0.9326,-152.846476,252.691096)">
                    <path d="M659.548,255.013C665.1,256.913 666.659,255.295 670.277,262.594C671.49,265.04 669.499,265.429 671.012,267.806C672.074,269.473 658.363,288.007 644.594,319.541C636.905,337.15 617.171,369.082 617.811,378.493C618.317,385.934 588.304,390.217 597.249,367.395C599.456,361.764 600.439,362.314 630.837,299.671C652.822,254.367 655.32,254.607 659.548,255.013Z" style="fill:rgb(21,22,104);"/>
                </g>
                <path d="M982.403,667.571C982.021,666.065 981.005,665.563 982.479,665.447C983.933,665.331 986.407,669.164 982.403,667.571Z" style="fill:rgb(22,22,22);"/>
                <path d="M641.448,660.552C641.559,659.064 640.992,657.961 642.434,658.693C642.584,658.769 645.164,660.239 641.448,660.552Z" style="fill:rgb(23,23,23);"/>
                <path d="M685.483,664.497C683.163,666.632 683.593,663.196 684.5,663.196C684.63,663.196 684.5,663.196 685.483,664.497Z" style="fill:rgb(213,213,213);"/>
                <path d="M716.497,552.484C714.531,550.973 717.386,550.642 717.386,551.5C717.386,551.606 717.386,551.5 716.497,552.484Z" style="fill:rgb(69,69,69);"/>
                <path d="M657.209,677.791C657.209,680.598 655.22,678.361 655.791,677.791C655.871,677.71 655.791,677.791 657.209,677.791Z" style="fill:rgb(105,105,105);"/>
                <path d="M810.791,630.209C810.791,630.096 810.791,628.791 810.791,628.791C811.361,628.22 813.598,630.209 810.791,630.209Z" style="fill:rgb(128,128,128);"/>
                <path d="M725.791,635.209C725.791,633.791 725.711,633.872 725.791,633.791C726.362,633.221 728.596,635.209 725.791,635.209Z" style="fill:rgb(175,175,175);"/>
            </g>
        </g>
    </g>
</svg>
